<?xml version="1.0" encoding="UTF-8" standalone="no"?>
<!DOCTYPE svg PUBLIC "-//W3C//DTD SVG 1.1//EN"
 "http://www.w3.org/Graphics/SVG/1.1/DTD/svg11.dtd">
<!-- Generated by graphviz version 2.26.3 (20100126.1600)
 -->
<!-- Title: G Pages: 1 -->
<svg width="214pt" height="908pt"
 viewBox="0.00 0.00 214.00 908.00" xmlns="http://www.w3.org/2000/svg" xmlns:xlink="http://www.w3.org/1999/xlink">
<g id="graph1" class="graph" transform="scale(1 1) rotate(0) translate(4 904)">
<title>G</title>
<polygon fill="white" stroke="white" points="-4,5 -4,-904 211,-904 211,5 -4,5"/>
<g id="graph2" class="cluster"><title>cluster_Global</title>
<polyline fill="none" stroke="gray" points="20,-8 186,-8 "/>
<path fill="none" stroke="gray" d="M186,-8C192,-8 198,-14 198,-20"/>
<polyline fill="none" stroke="gray" points="198,-20 198,-880 "/>
<path fill="none" stroke="gray" d="M198,-880C198,-886 192,-892 186,-892"/>
<polyline fill="none" stroke="gray" points="186,-892 20,-892 "/>
<path fill="none" stroke="gray" d="M20,-892C14,-892 8,-886 8,-880"/>
<polyline fill="none" stroke="gray" points="8,-880 8,-20 "/>
<path fill="none" stroke="gray" d="M8,-20C8,-14 14,-8 20,-8"/>
<text text-anchor="middle" x="103" y="-878.1" font-family="Times Roman,serif" font-size="11.00" fill="gray">Global</text>
</g>
<g id="graph3" class="cluster"><title>cluster_\PhpOffice</title>
<polyline fill="none" stroke="gray" points="28,-16 178,-16 "/>
<path fill="none" stroke="gray" d="M178,-16C184,-16 190,-22 190,-28"/>
<polyline fill="none" stroke="gray" points="190,-28 190,-850 "/>
<path fill="none" stroke="gray" d="M190,-850C190,-856 184,-862 178,-862"/>
<polyline fill="none" stroke="gray" points="178,-862 28,-862 "/>
<path fill="none" stroke="gray" d="M28,-862C22,-862 16,-856 16,-850"/>
<polyline fill="none" stroke="gray" points="16,-850 16,-28 "/>
<path fill="none" stroke="gray" d="M16,-28C16,-22 22,-16 28,-16"/>
<text text-anchor="middle" x="103" y="-848.1" font-family="Times Roman,serif" font-size="11.00" fill="gray">PhpOffice</text>
</g>
<g id="graph4" class="cluster"><title>cluster_\PhpOffice\PhpProject</title>
<polyline fill="none" stroke="gray" points="36,-24 170,-24 "/>
<path fill="none" stroke="gray" d="M170,-24C176,-24 182,-30 182,-36"/>
<polyline fill="none" stroke="gray" points="182,-36 182,-820 "/>
<path fill="none" stroke="gray" d="M182,-820C182,-826 176,-832 170,-832"/>
<polyline fill="none" stroke="gray" points="170,-832 36,-832 "/>
<path fill="none" stroke="gray" d="M36,-832C30,-832 24,-826 24,-820"/>
<polyline fill="none" stroke="gray" points="24,-820 24,-36 "/>
<path fill="none" stroke="gray" d="M24,-36C24,-30 30,-24 36,-24"/>
<text text-anchor="middle" x="103" y="-818.1" font-family="Times Roman,serif" font-size="11.00" fill="gray">PhpProject</text>
</g>
<g id="graph5" class="cluster"><title>cluster_\PhpOffice\PhpProject\Shared</title>
<polyline fill="none" stroke="gray" points="68,-674 138,-674 "/>
<path fill="none" stroke="gray" d="M138,-674C144,-674 150,-680 150,-686"/>
<polyline fill="none" stroke="gray" points="150,-686 150,-790 "/>
<path fill="none" stroke="gray" d="M150,-790C150,-796 144,-802 138,-802"/>
<polyline fill="none" stroke="gray" points="138,-802 68,-802 "/>
<path fill="none" stroke="gray" d="M68,-802C62,-802 56,-796 56,-790"/>
<polyline fill="none" stroke="gray" points="56,-790 56,-686 "/>
<path fill="none" stroke="gray" d="M56,-686C56,-680 62,-674 68,-674"/>
<text text-anchor="middle" x="103" y="-788.1" font-family="Times Roman,serif" font-size="11.00" fill="gray">Shared</text>
</g>
<g id="graph6" class="cluster"><title>cluster_\PhpOffice\PhpProject\Reader</title>
<polyline fill="none" stroke="gray" points="60,-538 146,-538 "/>
<path fill="none" stroke="gray" d="M146,-538C152,-538 158,-544 158,-550"/>
<polyline fill="none" stroke="gray" points="158,-550 158,-654 "/>
<path fill="none" stroke="gray" d="M158,-654C158,-660 152,-666 146,-666"/>
<polyline fill="none" stroke="gray" points="146,-666 60,-666 "/>
<path fill="none" stroke="gray" d="M60,-666C54,-666 48,-660 48,-654"/>
<polyline fill="none" stroke="gray" points="48,-654 48,-550 "/>
<path fill="none" stroke="gray" d="M48,-550C48,-544 54,-538 60,-538"/>
<text text-anchor="middle" x="103" y="-652.1" font-family="Times Roman,serif" font-size="11.00" fill="gray">Reader</text>
</g>
<g id="graph7" class="cluster"><title>cluster_\PhpOffice\PhpProject\Writer</title>
<polyline fill="none" stroke="gray" points="60,-402 146,-402 "/>
<path fill="none" stroke="gray" d="M146,-402C152,-402 158,-408 158,-414"/>
<polyline fill="none" stroke="gray" points="158,-414 158,-518 "/>
<path fill="none" stroke="gray" d="M158,-518C158,-524 152,-530 146,-530"/>
<polyline fill="none" stroke="gray" points="146,-530 60,-530 "/>
<path fill="none" stroke="gray" d="M60,-530C54,-530 48,-524 48,-518"/>
<polyline fill="none" stroke="gray" points="48,-518 48,-414 "/>
<path fill="none" stroke="gray" d="M48,-414C48,-408 54,-402 60,-402"/>
<text text-anchor="middle" x="103" y="-516.1" font-family="Times Roman,serif" font-size="11.00" fill="gray">Writer</text>
</g>
<!-- \\PhpOffice\\PhpProject\\Shared\\XMLReader -->
<g id="node5" class="node"><title>\\PhpOffice\\PhpProject\\Shared\\XMLReader</title>
<polygon fill="none" stroke="black" points="141,-772 65,-772 65,-736 141,-736 141,-772"/>
<text text-anchor="middle" x="103" y="-751.1" font-family="Times Roman,serif" font-size="11.00">XMLReader</text>
</g>
<!-- \\PhpOffice\\PhpProject\\Shared\\XMLWriter -->
<g id="node6" class="node"><title>\\PhpOffice\\PhpProject\\Shared\\XMLWriter</title>
<polygon fill="none" stroke="black" points="138,-718 68,-718 68,-682 138,-682 138,-718"/>
<text text-anchor="middle" x="103" y="-697.1" font-family="Times Roman,serif" font-size="11.00">XMLWriter</text>
</g>
<!-- \\PhpOffice\\PhpProject\\Reader\\GanttProject -->
<g id="node8" class="node"><title>\\PhpOffice\\PhpProject\\Reader\\GanttProject</title>
<polygon fill="none" stroke="black" points="146,-636 60,-636 60,-600 146,-600 146,-636"/>
<text text-anchor="middle" x="103" y="-615.1" font-family="Times Roman,serif" font-size="11.00">GanttProject</text>
</g>
<!-- \\PhpOffice\\PhpProject\\Reader\\MsProjectMPX -->
<g id="node9" class="node"><title>\\PhpOffice\\PhpProject\\Reader\\MsProjectMPX</title>
<polygon fill="none" stroke="black" points="149,-582 57,-582 57,-546 149,-546 149,-582"/>
<text text-anchor="middle" x="103" y="-561.1" font-family="Times Roman,serif" font-size="11.00">MsProjectMPX</text>
</g>
<!-- \\PhpOffice\\PhpProject\\Writer\\GanttProject -->
<g id="node11" class="node"><title>\\PhpOffice\\PhpProject\\Writer\\GanttProject</title>
<polygon fill="none" stroke="black" points="146,-500 60,-500 60,-464 146,-464 146,-500"/>
<text text-anchor="middle" x="103" y="-479.1" font-family="Times Roman,serif" font-size="11.00">GanttProject</text>
</g>
<!-- \\PhpOffice\\PhpProject\\Writer\\MsProjectMPX -->
<g id="node12" class="node"><title>\\PhpOffice\\PhpProject\\Writer\\MsProjectMPX</title>
<polygon fill="none" stroke="black" points="149,-446 57,-446 57,-410 149,-410 149,-446"/>
<text text-anchor="middle" x="103" y="-425.1" font-family="Times Roman,serif" font-size="11.00">MsProjectMPX</text>
</g>
<!-- \\PhpOffice\\PhpProject\\Task -->
<g id="node13" class="node"><title>\\PhpOffice\\PhpProject\\Task</title>
<polygon fill="none" stroke="black" points="130,-392 76,-392 76,-356 130,-356 130,-392"/>
<text text-anchor="middle" x="103" y="-371.1" font-family="Times Roman,serif" font-size="11.00">Task</text>
</g>
<!-- \\PhpOffice\\PhpProject\\IOFactory -->
<g id="node14" class="node"><title>\\PhpOffice\\PhpProject\\IOFactory</title>
<polygon fill="none" stroke="black" points="137,-338 69,-338 69,-302 137,-302 137,-338"/>
<text text-anchor="middle" x="103" y="-317.1" font-family="Times Roman,serif" font-size="11.00">IOFactory</text>
</g>
<!-- \\PhpOffice\\PhpProject\\DocumentInformations -->
<g id="node15" class="node"><title>\\PhpOffice\\PhpProject\\DocumentInformations</title>
<polygon fill="none" stroke="black" points="174,-284 32,-284 32,-248 174,-248 174,-284"/>
<text text-anchor="middle" x="103" y="-263.1" font-family="Times Roman,serif" font-size="11.00">DocumentInformations</text>
</g>
<!-- \\PhpOffice\\PhpProject\\Resource -->
<g id="node16" class="node"><title>\\PhpOffice\\PhpProject\\Resource</title>
<polygon fill="none" stroke="black" points="136,-230 70,-230 70,-194 136,-194 136,-230"/>
<text text-anchor="middle" x="103" y="-209.1" font-family="Times Roman,serif" font-size="11.00">Resource</text>
</g>
<!-- \\PhpOffice\\PhpProject\\Autoloader -->
<g id="node17" class="node"><title>\\PhpOffice\\PhpProject\\Autoloader</title>
<polygon fill="none" stroke="black" points="141,-176 65,-176 65,-140 141,-140 141,-176"/>
<text text-anchor="middle" x="103" y="-155.1" font-family="Times Roman,serif" font-size="11.00">Autoloader</text>
</g>
<!-- \\PhpOffice\\PhpProject\\DocumentProperties -->
<g id="node18" class="node"><title>\\PhpOffice\\PhpProject\\DocumentProperties</title>
<polygon fill="none" stroke="black" points="167,-122 39,-122 39,-86 167,-86 167,-122"/>
<text text-anchor="middle" x="103" y="-101.1" font-family="Times Roman,serif" font-size="11.00">DocumentProperties</text>
</g>
<!-- \\PhpOffice\\PhpProject\\PhpProject -->
<g id="node19" class="node"><title>\\PhpOffice\\PhpProject\\PhpProject</title>
<polygon fill="none" stroke="black" points="140,-68 66,-68 66,-32 140,-32 140,-68"/>
<text text-anchor="middle" x="103" y="-47.1" font-family="Times Roman,serif" font-size="11.00">PhpProject</text>
</g>
</g>
</svg>
