<?xml version="1.0" encoding="UTF-8" standalone="no"?>
<!DOCTYPE svg PUBLIC "-//W3C//DTD SVG 1.1//EN"
 "http://www.w3.org/Graphics/SVG/1.1/DTD/svg11.dtd">
<!-- Generated by graphviz version 2.26.3 (20100126.1600)
 -->
<!-- Title: G Pages: 1 -->
<svg width="214pt" height="800pt"
 viewBox="0.00 0.00 214.00 800.00" xmlns="http://www.w3.org/2000/svg" xmlns:xlink="http://www.w3.org/1999/xlink">
<g id="graph1" class="graph" transform="scale(1 1) rotate(0) translate(4 796)">
<title>G</title>
<polygon fill="white" stroke="white" points="-4,5 -4,-796 211,-796 211,5 -4,5"/>
<g id="graph2" class="cluster"><title>cluster_Global</title>
<polyline fill="none" stroke="gray" points="20,-8 186,-8 "/>
<path fill="none" stroke="gray" d="M186,-8C192,-8 198,-14 198,-20"/>
<polyline fill="none" stroke="gray" points="198,-20 198,-772 "/>
<path fill="none" stroke="gray" d="M198,-772C198,-778 192,-784 186,-784"/>
<polyline fill="none" stroke="gray" points="186,-784 20,-784 "/>
<path fill="none" stroke="gray" d="M20,-784C14,-784 8,-778 8,-772"/>
<polyline fill="none" stroke="gray" points="8,-772 8,-20 "/>
<path fill="none" stroke="gray" d="M8,-20C8,-14 14,-8 20,-8"/>
<text text-anchor="middle" x="103" y="-770.1" font-family="Times Roman,serif" font-size="11.00" fill="gray">Global</text>
</g>
<g id="graph3" class="cluster"><title>cluster_\PhpOffice</title>
<polyline fill="none" stroke="gray" points="28,-16 178,-16 "/>
<path fill="none" stroke="gray" d="M178,-16C184,-16 190,-22 190,-28"/>
<polyline fill="none" stroke="gray" points="190,-28 190,-742 "/>
<path fill="none" stroke="gray" d="M190,-742C190,-748 184,-754 178,-754"/>
<polyline fill="none" stroke="gray" points="178,-754 28,-754 "/>
<path fill="none" stroke="gray" d="M28,-754C22,-754 16,-748 16,-742"/>
<polyline fill="none" stroke="gray" points="16,-742 16,-28 "/>
<path fill="none" stroke="gray" d="M16,-28C16,-22 22,-16 28,-16"/>
<text text-anchor="middle" x="103" y="-740.1" font-family="Times Roman,serif" font-size="11.00" fill="gray">PhpOffice</text>
</g>
<g id="graph4" class="cluster"><title>cluster_\PhpOffice\PhpProject</title>
<polyline fill="none" stroke="gray" points="36,-24 170,-24 "/>
<path fill="none" stroke="gray" d="M170,-24C176,-24 182,-30 182,-36"/>
<polyline fill="none" stroke="gray" points="182,-36 182,-712 "/>
<path fill="none" stroke="gray" d="M182,-712C182,-718 176,-724 170,-724"/>
<polyline fill="none" stroke="gray" points="170,-724 36,-724 "/>
<path fill="none" stroke="gray" d="M36,-724C30,-724 24,-718 24,-712"/>
<polyline fill="none" stroke="gray" points="24,-712 24,-36 "/>
<path fill="none" stroke="gray" d="M24,-36C24,-30 30,-24 36,-24"/>
<text text-anchor="middle" x="103" y="-710.1" font-family="Times Roman,serif" font-size="11.00" fill="gray">PhpProject</text>
</g>
<g id="graph5" class="cluster"><title>cluster_\PhpOffice\PhpProject\Reader</title>
<polyline fill="none" stroke="gray" points="64,-620 142,-620 "/>
<path fill="none" stroke="gray" d="M142,-620C148,-620 154,-626 154,-632"/>
<polyline fill="none" stroke="gray" points="154,-632 154,-682 "/>
<path fill="none" stroke="gray" d="M154,-682C154,-688 148,-694 142,-694"/>
<polyline fill="none" stroke="gray" points="142,-694 64,-694 "/>
<path fill="none" stroke="gray" d="M64,-694C58,-694 52,-688 52,-682"/>
<polyline fill="none" stroke="gray" points="52,-682 52,-632 "/>
<path fill="none" stroke="gray" d="M52,-632C52,-626 58,-620 64,-620"/>
<text text-anchor="middle" x="103" y="-680.1" font-family="Times Roman,serif" font-size="11.00" fill="gray">Reader</text>
</g>
<g id="graph6" class="cluster"><title>cluster_\PhpOffice\PhpProject\Writer</title>
<polyline fill="none" stroke="gray" points="64,-538 142,-538 "/>
<path fill="none" stroke="gray" d="M142,-538C148,-538 154,-544 154,-550"/>
<polyline fill="none" stroke="gray" points="154,-550 154,-600 "/>
<path fill="none" stroke="gray" d="M154,-600C154,-606 148,-612 142,-612"/>
<polyline fill="none" stroke="gray" points="142,-612 64,-612 "/>
<path fill="none" stroke="gray" d="M64,-612C58,-612 52,-606 52,-600"/>
<polyline fill="none" stroke="gray" points="52,-600 52,-550 "/>
<path fill="none" stroke="gray" d="M52,-550C52,-544 58,-538 64,-538"/>
<text text-anchor="middle" x="103" y="-598.1" font-family="Times Roman,serif" font-size="11.00" fill="gray">Writer</text>
</g>
<g id="graph7" class="cluster"><title>cluster_\PhpOffice\PhpProject\Shared</title>
<polyline fill="none" stroke="gray" points="68,-402 138,-402 "/>
<path fill="none" stroke="gray" d="M138,-402C144,-402 150,-408 150,-414"/>
<polyline fill="none" stroke="gray" points="150,-414 150,-518 "/>
<path fill="none" stroke="gray" d="M150,-518C150,-524 144,-530 138,-530"/>
<polyline fill="none" stroke="gray" points="138,-530 68,-530 "/>
<path fill="none" stroke="gray" d="M68,-530C62,-530 56,-524 56,-518"/>
<polyline fill="none" stroke="gray" points="56,-518 56,-414 "/>
<path fill="none" stroke="gray" d="M56,-414C56,-408 62,-402 68,-402"/>
<text text-anchor="middle" x="103" y="-516.1" font-family="Times Roman,serif" font-size="11.00" fill="gray">Shared</text>
</g>
<!-- \\PhpOffice\\PhpProject\\Reader\\GanttProject -->
<g id="node5" class="node"><title>\\PhpOffice\\PhpProject\\Reader\\GanttProject</title>
<polygon fill="none" stroke="black" points="146,-664 60,-664 60,-628 146,-628 146,-664"/>
<text text-anchor="middle" x="103" y="-643.1" font-family="Times Roman,serif" font-size="11.00">GanttProject</text>
</g>
<!-- \\PhpOffice\\PhpProject\\Writer\\GanttProject -->
<g id="node7" class="node"><title>\\PhpOffice\\PhpProject\\Writer\\GanttProject</title>
<polygon fill="none" stroke="black" points="146,-582 60,-582 60,-546 146,-546 146,-582"/>
<text text-anchor="middle" x="103" y="-561.1" font-family="Times Roman,serif" font-size="11.00">GanttProject</text>
</g>
<!-- \\PhpOffice\\PhpProject\\Shared\\XMLReader -->
<g id="node9" class="node"><title>\\PhpOffice\\PhpProject\\Shared\\XMLReader</title>
<polygon fill="none" stroke="black" points="141,-500 65,-500 65,-464 141,-464 141,-500"/>
<text text-anchor="middle" x="103" y="-479.1" font-family="Times Roman,serif" font-size="11.00">XMLReader</text>
</g>
<!-- \\PhpOffice\\PhpProject\\Shared\\XMLWriter -->
<g id="node10" class="node"><title>\\PhpOffice\\PhpProject\\Shared\\XMLWriter</title>
<polygon fill="none" stroke="black" points="138,-446 68,-446 68,-410 138,-410 138,-446"/>
<text text-anchor="middle" x="103" y="-425.1" font-family="Times Roman,serif" font-size="11.00">XMLWriter</text>
</g>
<!-- \\PhpOffice\\PhpProject\\Resource -->
<g id="node11" class="node"><title>\\PhpOffice\\PhpProject\\Resource</title>
<polygon fill="none" stroke="black" points="136,-392 70,-392 70,-356 136,-356 136,-392"/>
<text text-anchor="middle" x="103" y="-371.1" font-family="Times Roman,serif" font-size="11.00">Resource</text>
</g>
<!-- \\PhpOffice\\PhpProject\\IOFactory -->
<g id="node12" class="node"><title>\\PhpOffice\\PhpProject\\IOFactory</title>
<polygon fill="none" stroke="black" points="137,-338 69,-338 69,-302 137,-302 137,-338"/>
<text text-anchor="middle" x="103" y="-317.1" font-family="Times Roman,serif" font-size="11.00">IOFactory</text>
</g>
<!-- \\PhpOffice\\PhpProject\\Autoloader -->
<g id="node13" class="node"><title>\\PhpOffice\\PhpProject\\Autoloader</title>
<polygon fill="none" stroke="black" points="141,-284 65,-284 65,-248 141,-248 141,-284"/>
<text text-anchor="middle" x="103" y="-263.1" font-family="Times Roman,serif" font-size="11.00">Autoloader</text>
</g>
<!-- \\PhpOffice\\PhpProject\\DocumentInformations -->
<g id="node14" class="node"><title>\\PhpOffice\\PhpProject\\DocumentInformations</title>
<polygon fill="none" stroke="black" points="174,-230 32,-230 32,-194 174,-194 174,-230"/>
<text text-anchor="middle" x="103" y="-209.1" font-family="Times Roman,serif" font-size="11.00">DocumentInformations</text>
</g>
<!-- \\PhpOffice\\PhpProject\\PhpProject -->
<g id="node15" class="node"><title>\\PhpOffice\\PhpProject\\PhpProject</title>
<polygon fill="none" stroke="black" points="140,-176 66,-176 66,-140 140,-140 140,-176"/>
<text text-anchor="middle" x="103" y="-155.1" font-family="Times Roman,serif" font-size="11.00">PhpProject</text>
</g>
<!-- \\PhpOffice\\PhpProject\\DocumentProperties -->
<g id="node16" class="node"><title>\\PhpOffice\\PhpProject\\DocumentProperties</title>
<polygon fill="none" stroke="black" points="167,-122 39,-122 39,-86 167,-86 167,-122"/>
<text text-anchor="middle" x="103" y="-101.1" font-family="Times Roman,serif" font-size="11.00">DocumentProperties</text>
</g>
<!-- \\PhpOffice\\PhpProject\\Task -->
<g id="node17" class="node"><title>\\PhpOffice\\PhpProject\\Task</title>
<polygon fill="none" stroke="black" points="130,-68 76,-68 76,-32 130,-32 130,-68"/>
<text text-anchor="middle" x="103" y="-47.1" font-family="Times Roman,serif" font-size="11.00">Task</text>
</g>
</g>
</svg>
