<?xml version="1.0" encoding="UTF-8" standalone="no"?>
<!DOCTYPE svg PUBLIC "-//W3C//DTD SVG 1.1//EN"
 "http://www.w3.org/Graphics/SVG/1.1/DTD/svg11.dtd">
<!-- Generated by graphviz version 2.36.0 (20140111.2315)
 -->
<!-- Title: G Pages: 1 -->
<svg width="224pt" height="896pt"
 viewBox="0.00 0.00 224.00 896.00" xmlns="http://www.w3.org/2000/svg" xmlns:xlink="http://www.w3.org/1999/xlink">
<g id="graph0" class="graph" transform="scale(1 1) rotate(0) translate(4 892)">
<title>G</title>
<polygon fill="white" stroke="none" points="-4,4 -4,-892 220,-892 220,4 -4,4"/>
<g id="clust1" class="cluster"><title>cluster_Global</title>
<path fill="none" stroke="gray" d="M20,-8C20,-8 196,-8 196,-8 202,-8 208,-14 208,-20 208,-20 208,-868 208,-868 208,-874 202,-880 196,-880 196,-880 20,-880 20,-880 14,-880 8,-874 8,-868 8,-868 8,-20 8,-20 8,-14 14,-8 20,-8"/>
<text text-anchor="middle" x="108" y="-867.2" font-family="Times,serif" font-size="11.00" fill="gray">Global</text>
</g>
<g id="clust2" class="cluster"><title>cluster_\PhpOffice</title>
<path fill="none" stroke="gray" d="M28,-16C28,-16 188,-16 188,-16 194,-16 200,-22 200,-28 200,-28 200,-840 200,-840 200,-846 194,-852 188,-852 188,-852 28,-852 28,-852 22,-852 16,-846 16,-840 16,-840 16,-28 16,-28 16,-22 22,-16 28,-16"/>
<text text-anchor="middle" x="108" y="-839.2" font-family="Times,serif" font-size="11.00" fill="gray">PhpOffice</text>
</g>
<g id="clust3" class="cluster"><title>cluster_\PhpOffice\PhpProject</title>
<path fill="none" stroke="gray" d="M36,-24C36,-24 180,-24 180,-24 186,-24 192,-30 192,-36 192,-36 192,-812 192,-812 192,-818 186,-824 180,-824 180,-824 36,-824 36,-824 30,-824 24,-818 24,-812 24,-812 24,-36 24,-36 24,-30 30,-24 36,-24"/>
<text text-anchor="middle" x="108" y="-811.2" font-family="Times,serif" font-size="11.00" fill="gray">PhpProject</text>
</g>
<g id="clust4" class="cluster"><title>cluster_\PhpOffice\PhpProject\Reader</title>
<path fill="none" stroke="gray" d="M63,-670C63,-670 153,-670 153,-670 159,-670 165,-676 165,-682 165,-682 165,-784 165,-784 165,-790 159,-796 153,-796 153,-796 63,-796 63,-796 57,-796 51,-790 51,-784 51,-784 51,-682 51,-682 51,-676 57,-670 63,-670"/>
<text text-anchor="middle" x="108" y="-783.2" font-family="Times,serif" font-size="11.00" fill="gray">Reader</text>
</g>
<g id="clust5" class="cluster"><title>cluster_\PhpOffice\PhpProject\Writer</title>
<path fill="none" stroke="gray" d="M63,-536C63,-536 153,-536 153,-536 159,-536 165,-542 165,-548 165,-548 165,-650 165,-650 165,-656 159,-662 153,-662 153,-662 63,-662 63,-662 57,-662 51,-656 51,-650 51,-650 51,-548 51,-548 51,-542 57,-536 63,-536"/>
<text text-anchor="middle" x="108" y="-649.2" font-family="Times,serif" font-size="11.00" fill="gray">Writer</text>
</g>
<g id="clust6" class="cluster"><title>cluster_\PhpOffice\PhpProject\Shared</title>
<path fill="none" stroke="gray" d="M73,-402C73,-402 143,-402 143,-402 149,-402 155,-408 155,-414 155,-414 155,-516 155,-516 155,-522 149,-528 143,-528 143,-528 73,-528 73,-528 67,-528 61,-522 61,-516 61,-516 61,-414 61,-414 61,-408 67,-402 73,-402"/>
<text text-anchor="middle" x="108" y="-515.2" font-family="Times,serif" font-size="11.00" fill="gray">Shared</text>
</g>
<!-- \\PhpOffice\\PhpProject\\Reader\\GanttProject -->
<g id="node1" class="node"><title>\\PhpOffice\\PhpProject\\Reader\\GanttProject</title>
<polygon fill="none" stroke="black" points="157,-768 59,-768 59,-732 157,-732 157,-768"/>
<text text-anchor="middle" x="108" y="-747.2" font-family="Courier,monospace" font-size="11.00">GanttProject</text>
</g>
<!-- \\PhpOffice\\PhpProject\\Reader\\MsProjectMPX -->
<g id="node2" class="node"><title>\\PhpOffice\\PhpProject\\Reader\\MsProjectMPX</title>
<polygon fill="none" stroke="black" points="157,-714 59,-714 59,-678 157,-678 157,-714"/>
<text text-anchor="middle" x="108" y="-693.2" font-family="Courier,monospace" font-size="11.00">MsProjectMPX</text>
</g>
<!-- \\PhpOffice\\PhpProject\\Writer\\GanttProject -->
<g id="node3" class="node"><title>\\PhpOffice\\PhpProject\\Writer\\GanttProject</title>
<polygon fill="none" stroke="black" points="157,-634 59,-634 59,-598 157,-598 157,-634"/>
<text text-anchor="middle" x="108" y="-613.2" font-family="Courier,monospace" font-size="11.00">GanttProject</text>
</g>
<!-- \\PhpOffice\\PhpProject\\Writer\\MsProjectMPX -->
<g id="node4" class="node"><title>\\PhpOffice\\PhpProject\\Writer\\MsProjectMPX</title>
<polygon fill="none" stroke="black" points="157,-580 59,-580 59,-544 157,-544 157,-580"/>
<text text-anchor="middle" x="108" y="-559.2" font-family="Courier,monospace" font-size="11.00">MsProjectMPX</text>
</g>
<!-- \\PhpOffice\\PhpProject\\Shared\\XMLReader -->
<g id="node5" class="node"><title>\\PhpOffice\\PhpProject\\Shared\\XMLReader</title>
<polygon fill="none" stroke="black" points="146.5,-500 69.5,-500 69.5,-464 146.5,-464 146.5,-500"/>
<text text-anchor="middle" x="108" y="-479.2" font-family="Courier,monospace" font-size="11.00">XMLReader</text>
</g>
<!-- \\PhpOffice\\PhpProject\\Shared\\XMLWriter -->
<g id="node6" class="node"><title>\\PhpOffice\\PhpProject\\Shared\\XMLWriter</title>
<polygon fill="none" stroke="black" points="146.5,-446 69.5,-446 69.5,-410 146.5,-410 146.5,-446"/>
<text text-anchor="middle" x="108" y="-425.2" font-family="Courier,monospace" font-size="11.00">XMLWriter</text>
</g>
<!-- \\PhpOffice\\PhpProject\\DocumentProperties -->
<g id="node7" class="node"><title>\\PhpOffice\\PhpProject\\DocumentProperties</title>
<polygon fill="none" stroke="black" points="177,-392 39,-392 39,-356 177,-356 177,-392"/>
<text text-anchor="middle" x="108" y="-371.2" font-family="Courier,monospace" font-size="11.00">DocumentProperties</text>
</g>
<!-- \\PhpOffice\\PhpProject\\Task -->
<g id="node8" class="node"><title>\\PhpOffice\\PhpProject\\Task</title>
<polygon fill="none" stroke="black" points="135,-338 81,-338 81,-302 135,-302 135,-338"/>
<text text-anchor="middle" x="108" y="-317.2" font-family="Courier,monospace" font-size="11.00">Task</text>
</g>
<!-- \\PhpOffice\\PhpProject\\Resource -->
<g id="node9" class="node"><title>\\PhpOffice\\PhpProject\\Resource</title>
<polygon fill="none" stroke="black" points="143.5,-284 72.5,-284 72.5,-248 143.5,-248 143.5,-284"/>
<text text-anchor="middle" x="108" y="-263.2" font-family="Courier,monospace" font-size="11.00">Resource</text>
</g>
<!-- \\PhpOffice\\PhpProject\\IOFactory -->
<g id="node10" class="node"><title>\\PhpOffice\\PhpProject\\IOFactory</title>
<polygon fill="none" stroke="black" points="146.5,-230 69.5,-230 69.5,-194 146.5,-194 146.5,-230"/>
<text text-anchor="middle" x="108" y="-209.2" font-family="Courier,monospace" font-size="11.00">IOFactory</text>
</g>
<!-- \\PhpOffice\\PhpProject\\Autoloader -->
<g id="node11" class="node"><title>\\PhpOffice\\PhpProject\\Autoloader</title>
<polygon fill="none" stroke="black" points="150,-176 66,-176 66,-140 150,-140 150,-176"/>
<text text-anchor="middle" x="108" y="-155.2" font-family="Courier,monospace" font-size="11.00">Autoloader</text>
</g>
<!-- \\PhpOffice\\PhpProject\\PhpProject -->
<g id="node12" class="node"><title>\\PhpOffice\\PhpProject\\PhpProject</title>
<polygon fill="none" stroke="black" points="150,-122 66,-122 66,-86 150,-86 150,-122"/>
<text text-anchor="middle" x="108" y="-101.2" font-family="Courier,monospace" font-size="11.00">PhpProject</text>
</g>
<!-- \\PhpOffice\\PhpProject\\DocumentInformations -->
<g id="node13" class="node"><title>\\PhpOffice\\PhpProject\\DocumentInformations</title>
<polygon fill="none" stroke="black" points="184,-68 32,-68 32,-32 184,-32 184,-68"/>
<text text-anchor="middle" x="108" y="-47.2" font-family="Courier,monospace" font-size="11.00">DocumentInformations</text>
</g>
</g>
</svg>
