<?xml version="1.0" encoding="UTF-8" standalone="no"?>
<!DOCTYPE svg PUBLIC "-//W3C//DTD SVG 1.1//EN"
 "http://www.w3.org/Graphics/SVG/1.1/DTD/svg11.dtd">
<!-- Generated by graphviz version 2.26.3 (20100126.1600)
 -->
<!-- Title: G Pages: 1 -->
<svg width="214pt" height="800pt"
 viewBox="0.00 0.00 214.00 800.00" xmlns="http://www.w3.org/2000/svg" xmlns:xlink="http://www.w3.org/1999/xlink">
<g id="graph1" class="graph" transform="scale(1 1) rotate(0) translate(4 796)">
<title>G</title>
<polygon fill="white" stroke="white" points="-4,5 -4,-796 211,-796 211,5 -4,5"/>
<g id="graph2" class="cluster"><title>cluster_Global</title>
<polyline fill="none" stroke="gray" points="20,-8 186,-8 "/>
<path fill="none" stroke="gray" d="M186,-8C192,-8 198,-14 198,-20"/>
<polyline fill="none" stroke="gray" points="198,-20 198,-772 "/>
<path fill="none" stroke="gray" d="M198,-772C198,-778 192,-784 186,-784"/>
<polyline fill="none" stroke="gray" points="186,-784 20,-784 "/>
<path fill="none" stroke="gray" d="M20,-784C14,-784 8,-778 8,-772"/>
<polyline fill="none" stroke="gray" points="8,-772 8,-20 "/>
<path fill="none" stroke="gray" d="M8,-20C8,-14 14,-8 20,-8"/>
<text text-anchor="middle" x="103" y="-770.1" font-family="Times Roman,serif" font-size="11.00" fill="gray">Global</text>
</g>
<g id="graph3" class="cluster"><title>cluster_\PhpOffice</title>
<polyline fill="none" stroke="gray" points="28,-16 178,-16 "/>
<path fill="none" stroke="gray" d="M178,-16C184,-16 190,-22 190,-28"/>
<polyline fill="none" stroke="gray" points="190,-28 190,-742 "/>
<path fill="none" stroke="gray" d="M190,-742C190,-748 184,-754 178,-754"/>
<polyline fill="none" stroke="gray" points="178,-754 28,-754 "/>
<path fill="none" stroke="gray" d="M28,-754C22,-754 16,-748 16,-742"/>
<polyline fill="none" stroke="gray" points="16,-742 16,-28 "/>
<path fill="none" stroke="gray" d="M16,-28C16,-22 22,-16 28,-16"/>
<text text-anchor="middle" x="103" y="-740.1" font-family="Times Roman,serif" font-size="11.00" fill="gray">PhpOffice</text>
</g>
<g id="graph4" class="cluster"><title>cluster_\PhpOffice\PhpProject</title>
<polyline fill="none" stroke="gray" points="36,-24 170,-24 "/>
<path fill="none" stroke="gray" d="M170,-24C176,-24 182,-30 182,-36"/>
<polyline fill="none" stroke="gray" points="182,-36 182,-712 "/>
<path fill="none" stroke="gray" d="M182,-712C182,-718 176,-724 170,-724"/>
<polyline fill="none" stroke="gray" points="170,-724 36,-724 "/>
<path fill="none" stroke="gray" d="M36,-724C30,-724 24,-718 24,-712"/>
<polyline fill="none" stroke="gray" points="24,-712 24,-36 "/>
<path fill="none" stroke="gray" d="M24,-36C24,-30 30,-24 36,-24"/>
<text text-anchor="middle" x="103" y="-710.1" font-family="Times Roman,serif" font-size="11.00" fill="gray">PhpProject</text>
</g>
<g id="graph5" class="cluster"><title>cluster_\PhpOffice\PhpProject\Shared</title>
<polyline fill="none" stroke="gray" points="68,-566 138,-566 "/>
<path fill="none" stroke="gray" d="M138,-566C144,-566 150,-572 150,-578"/>
<polyline fill="none" stroke="gray" points="150,-578 150,-682 "/>
<path fill="none" stroke="gray" d="M150,-682C150,-688 144,-694 138,-694"/>
<polyline fill="none" stroke="gray" points="138,-694 68,-694 "/>
<path fill="none" stroke="gray" d="M68,-694C62,-694 56,-688 56,-682"/>
<polyline fill="none" stroke="gray" points="56,-682 56,-578 "/>
<path fill="none" stroke="gray" d="M56,-578C56,-572 62,-566 68,-566"/>
<text text-anchor="middle" x="103" y="-680.1" font-family="Times Roman,serif" font-size="11.00" fill="gray">Shared</text>
</g>
<g id="graph6" class="cluster"><title>cluster_\PhpOffice\PhpProject\Writer</title>
<polyline fill="none" stroke="gray" points="64,-484 142,-484 "/>
<path fill="none" stroke="gray" d="M142,-484C148,-484 154,-490 154,-496"/>
<polyline fill="none" stroke="gray" points="154,-496 154,-546 "/>
<path fill="none" stroke="gray" d="M154,-546C154,-552 148,-558 142,-558"/>
<polyline fill="none" stroke="gray" points="142,-558 64,-558 "/>
<path fill="none" stroke="gray" d="M64,-558C58,-558 52,-552 52,-546"/>
<polyline fill="none" stroke="gray" points="52,-546 52,-496 "/>
<path fill="none" stroke="gray" d="M52,-496C52,-490 58,-484 64,-484"/>
<text text-anchor="middle" x="103" y="-544.1" font-family="Times Roman,serif" font-size="11.00" fill="gray">Writer</text>
</g>
<g id="graph7" class="cluster"><title>cluster_\PhpOffice\PhpProject\Reader</title>
<polyline fill="none" stroke="gray" points="64,-402 142,-402 "/>
<path fill="none" stroke="gray" d="M142,-402C148,-402 154,-408 154,-414"/>
<polyline fill="none" stroke="gray" points="154,-414 154,-464 "/>
<path fill="none" stroke="gray" d="M154,-464C154,-470 148,-476 142,-476"/>
<polyline fill="none" stroke="gray" points="142,-476 64,-476 "/>
<path fill="none" stroke="gray" d="M64,-476C58,-476 52,-470 52,-464"/>
<polyline fill="none" stroke="gray" points="52,-464 52,-414 "/>
<path fill="none" stroke="gray" d="M52,-414C52,-408 58,-402 64,-402"/>
<text text-anchor="middle" x="103" y="-462.1" font-family="Times Roman,serif" font-size="11.00" fill="gray">Reader</text>
</g>
<!-- \\PhpOffice\\PhpProject\\Shared\\XMLReader -->
<g id="node5" class="node"><title>\\PhpOffice\\PhpProject\\Shared\\XMLReader</title>
<polygon fill="none" stroke="black" points="141,-664 65,-664 65,-628 141,-628 141,-664"/>
<text text-anchor="middle" x="103" y="-643.1" font-family="Times Roman,serif" font-size="11.00">XMLReader</text>
</g>
<!-- \\PhpOffice\\PhpProject\\Shared\\XMLWriter -->
<g id="node6" class="node"><title>\\PhpOffice\\PhpProject\\Shared\\XMLWriter</title>
<polygon fill="none" stroke="black" points="138,-610 68,-610 68,-574 138,-574 138,-610"/>
<text text-anchor="middle" x="103" y="-589.1" font-family="Times Roman,serif" font-size="11.00">XMLWriter</text>
</g>
<!-- \\PhpOffice\\PhpProject\\Writer\\GanttProject -->
<g id="node8" class="node"><title>\\PhpOffice\\PhpProject\\Writer\\GanttProject</title>
<polygon fill="none" stroke="black" points="146,-528 60,-528 60,-492 146,-492 146,-528"/>
<text text-anchor="middle" x="103" y="-507.1" font-family="Times Roman,serif" font-size="11.00">GanttProject</text>
</g>
<!-- \\PhpOffice\\PhpProject\\Reader\\GanttProject -->
<g id="node10" class="node"><title>\\PhpOffice\\PhpProject\\Reader\\GanttProject</title>
<polygon fill="none" stroke="black" points="146,-446 60,-446 60,-410 146,-410 146,-446"/>
<text text-anchor="middle" x="103" y="-425.1" font-family="Times Roman,serif" font-size="11.00">GanttProject</text>
</g>
<!-- \\PhpOffice\\PhpProject\\Task -->
<g id="node11" class="node"><title>\\PhpOffice\\PhpProject\\Task</title>
<polygon fill="none" stroke="black" points="130,-392 76,-392 76,-356 130,-356 130,-392"/>
<text text-anchor="middle" x="103" y="-371.1" font-family="Times Roman,serif" font-size="11.00">Task</text>
</g>
<!-- \\PhpOffice\\PhpProject\\DocumentInformations -->
<g id="node12" class="node"><title>\\PhpOffice\\PhpProject\\DocumentInformations</title>
<polygon fill="none" stroke="black" points="174,-338 32,-338 32,-302 174,-302 174,-338"/>
<text text-anchor="middle" x="103" y="-317.1" font-family="Times Roman,serif" font-size="11.00">DocumentInformations</text>
</g>
<!-- \\PhpOffice\\PhpProject\\Resource -->
<g id="node13" class="node"><title>\\PhpOffice\\PhpProject\\Resource</title>
<polygon fill="none" stroke="black" points="136,-284 70,-284 70,-248 136,-248 136,-284"/>
<text text-anchor="middle" x="103" y="-263.1" font-family="Times Roman,serif" font-size="11.00">Resource</text>
</g>
<!-- \\PhpOffice\\PhpProject\\IOFactory -->
<g id="node14" class="node"><title>\\PhpOffice\\PhpProject\\IOFactory</title>
<polygon fill="none" stroke="black" points="137,-230 69,-230 69,-194 137,-194 137,-230"/>
<text text-anchor="middle" x="103" y="-209.1" font-family="Times Roman,serif" font-size="11.00">IOFactory</text>
</g>
<!-- \\PhpOffice\\PhpProject\\DocumentProperties -->
<g id="node15" class="node"><title>\\PhpOffice\\PhpProject\\DocumentProperties</title>
<polygon fill="none" stroke="black" points="167,-176 39,-176 39,-140 167,-140 167,-176"/>
<text text-anchor="middle" x="103" y="-155.1" font-family="Times Roman,serif" font-size="11.00">DocumentProperties</text>
</g>
<!-- \\PhpOffice\\PhpProject\\Autoloader -->
<g id="node16" class="node"><title>\\PhpOffice\\PhpProject\\Autoloader</title>
<polygon fill="none" stroke="black" points="141,-122 65,-122 65,-86 141,-86 141,-122"/>
<text text-anchor="middle" x="103" y="-101.1" font-family="Times Roman,serif" font-size="11.00">Autoloader</text>
</g>
<!-- \\PhpOffice\\PhpProject\\PhpProject -->
<g id="node17" class="node"><title>\\PhpOffice\\PhpProject\\PhpProject</title>
<polygon fill="none" stroke="black" points="140,-68 66,-68 66,-32 140,-32 140,-68"/>
<text text-anchor="middle" x="103" y="-47.1" font-family="Times Roman,serif" font-size="11.00">PhpProject</text>
</g>
</g>
</svg>
