<?xml version="1.0" encoding="UTF-8" standalone="no"?>
<!DOCTYPE svg PUBLIC "-//W3C//DTD SVG 1.1//EN"
 "http://www.w3.org/Graphics/SVG/1.1/DTD/svg11.dtd">
<!-- Generated by graphviz version 2.26.3 (20100126.1600)
 -->
<!-- Title: G Pages: 1 -->
<svg width="224pt" height="908pt"
 viewBox="0.00 0.00 224.00 908.00" xmlns="http://www.w3.org/2000/svg" xmlns:xlink="http://www.w3.org/1999/xlink">
<g id="graph1" class="graph" transform="scale(1 1) rotate(0) translate(4 904)">
<title>G</title>
<polygon fill="white" stroke="white" points="-4,5 -4,-904 221,-904 221,5 -4,5"/>
<g id="graph2" class="cluster"><title>cluster_Global</title>
<polyline fill="none" stroke="gray" points="20,-8 196,-8 "/>
<path fill="none" stroke="gray" d="M196,-8C202,-8 208,-14 208,-20"/>
<polyline fill="none" stroke="gray" points="208,-20 208,-880 "/>
<path fill="none" stroke="gray" d="M208,-880C208,-886 202,-892 196,-892"/>
<polyline fill="none" stroke="gray" points="196,-892 20,-892 "/>
<path fill="none" stroke="gray" d="M20,-892C14,-892 8,-886 8,-880"/>
<polyline fill="none" stroke="gray" points="8,-880 8,-20 "/>
<path fill="none" stroke="gray" d="M8,-20C8,-14 14,-8 20,-8"/>
<text text-anchor="middle" x="108" y="-878.1" font-family="Times Roman,serif" font-size="11.00" fill="gray">Global</text>
</g>
<g id="graph3" class="cluster"><title>cluster_\PhpOffice</title>
<polyline fill="none" stroke="gray" points="28,-16 188,-16 "/>
<path fill="none" stroke="gray" d="M188,-16C194,-16 200,-22 200,-28"/>
<polyline fill="none" stroke="gray" points="200,-28 200,-850 "/>
<path fill="none" stroke="gray" d="M200,-850C200,-856 194,-862 188,-862"/>
<polyline fill="none" stroke="gray" points="188,-862 28,-862 "/>
<path fill="none" stroke="gray" d="M28,-862C22,-862 16,-856 16,-850"/>
<polyline fill="none" stroke="gray" points="16,-850 16,-28 "/>
<path fill="none" stroke="gray" d="M16,-28C16,-22 22,-16 28,-16"/>
<text text-anchor="middle" x="108" y="-848.1" font-family="Times Roman,serif" font-size="11.00" fill="gray">PhpOffice</text>
</g>
<g id="graph4" class="cluster"><title>cluster_\PhpOffice\PhpProject</title>
<polyline fill="none" stroke="gray" points="36,-24 180,-24 "/>
<path fill="none" stroke="gray" d="M180,-24C186,-24 192,-30 192,-36"/>
<polyline fill="none" stroke="gray" points="192,-36 192,-820 "/>
<path fill="none" stroke="gray" d="M192,-820C192,-826 186,-832 180,-832"/>
<polyline fill="none" stroke="gray" points="180,-832 36,-832 "/>
<path fill="none" stroke="gray" d="M36,-832C30,-832 24,-826 24,-820"/>
<polyline fill="none" stroke="gray" points="24,-820 24,-36 "/>
<path fill="none" stroke="gray" d="M24,-36C24,-30 30,-24 36,-24"/>
<text text-anchor="middle" x="108" y="-818.1" font-family="Times Roman,serif" font-size="11.00" fill="gray">PhpProject</text>
</g>
<g id="graph5" class="cluster"><title>cluster_\PhpOffice\PhpProject\Reader</title>
<polyline fill="none" stroke="gray" points="63,-674 153,-674 "/>
<path fill="none" stroke="gray" d="M153,-674C159,-674 165,-680 165,-686"/>
<polyline fill="none" stroke="gray" points="165,-686 165,-790 "/>
<path fill="none" stroke="gray" d="M165,-790C165,-796 159,-802 153,-802"/>
<polyline fill="none" stroke="gray" points="153,-802 63,-802 "/>
<path fill="none" stroke="gray" d="M63,-802C57,-802 51,-796 51,-790"/>
<polyline fill="none" stroke="gray" points="51,-790 51,-686 "/>
<path fill="none" stroke="gray" d="M51,-686C51,-680 57,-674 63,-674"/>
<text text-anchor="middle" x="108" y="-788.1" font-family="Times Roman,serif" font-size="11.00" fill="gray">Reader</text>
</g>
<g id="graph6" class="cluster"><title>cluster_\PhpOffice\PhpProject\Writer</title>
<polyline fill="none" stroke="gray" points="63,-538 153,-538 "/>
<path fill="none" stroke="gray" d="M153,-538C159,-538 165,-544 165,-550"/>
<polyline fill="none" stroke="gray" points="165,-550 165,-654 "/>
<path fill="none" stroke="gray" d="M165,-654C165,-660 159,-666 153,-666"/>
<polyline fill="none" stroke="gray" points="153,-666 63,-666 "/>
<path fill="none" stroke="gray" d="M63,-666C57,-666 51,-660 51,-654"/>
<polyline fill="none" stroke="gray" points="51,-654 51,-550 "/>
<path fill="none" stroke="gray" d="M51,-550C51,-544 57,-538 63,-538"/>
<text text-anchor="middle" x="108" y="-652.1" font-family="Times Roman,serif" font-size="11.00" fill="gray">Writer</text>
</g>
<g id="graph7" class="cluster"><title>cluster_\PhpOffice\PhpProject\Shared</title>
<polyline fill="none" stroke="gray" points="73,-402 143,-402 "/>
<path fill="none" stroke="gray" d="M143,-402C149,-402 155,-408 155,-414"/>
<polyline fill="none" stroke="gray" points="155,-414 155,-518 "/>
<path fill="none" stroke="gray" d="M155,-518C155,-524 149,-530 143,-530"/>
<polyline fill="none" stroke="gray" points="143,-530 73,-530 "/>
<path fill="none" stroke="gray" d="M73,-530C67,-530 61,-524 61,-518"/>
<polyline fill="none" stroke="gray" points="61,-518 61,-414 "/>
<path fill="none" stroke="gray" d="M61,-414C61,-408 67,-402 73,-402"/>
<text text-anchor="middle" x="108" y="-516.1" font-family="Times Roman,serif" font-size="11.00" fill="gray">Shared</text>
</g>
<!-- \\PhpOffice\\PhpProject\\Reader\\GanttProject -->
<g id="node5" class="node"><title>\\PhpOffice\\PhpProject\\Reader\\GanttProject</title>
<polygon fill="none" stroke="black" points="157,-772 59,-772 59,-736 157,-736 157,-772"/>
<text text-anchor="middle" x="108" y="-751.1" font-family="Courier,monospace" font-size="11.00">GanttProject</text>
</g>
<!-- \\PhpOffice\\PhpProject\\Reader\\MsProjectMPX -->
<g id="node6" class="node"><title>\\PhpOffice\\PhpProject\\Reader\\MsProjectMPX</title>
<polygon fill="none" stroke="black" points="157,-718 59,-718 59,-682 157,-682 157,-718"/>
<text text-anchor="middle" x="108" y="-697.1" font-family="Courier,monospace" font-size="11.00">MsProjectMPX</text>
</g>
<!-- \\PhpOffice\\PhpProject\\Writer\\GanttProject -->
<g id="node8" class="node"><title>\\PhpOffice\\PhpProject\\Writer\\GanttProject</title>
<polygon fill="none" stroke="black" points="157,-636 59,-636 59,-600 157,-600 157,-636"/>
<text text-anchor="middle" x="108" y="-615.1" font-family="Courier,monospace" font-size="11.00">GanttProject</text>
</g>
<!-- \\PhpOffice\\PhpProject\\Writer\\MsProjectMPX -->
<g id="node9" class="node"><title>\\PhpOffice\\PhpProject\\Writer\\MsProjectMPX</title>
<polygon fill="none" stroke="black" points="157,-582 59,-582 59,-546 157,-546 157,-582"/>
<text text-anchor="middle" x="108" y="-561.1" font-family="Courier,monospace" font-size="11.00">MsProjectMPX</text>
</g>
<!-- \\PhpOffice\\PhpProject\\Shared\\XMLReader -->
<g id="node11" class="node"><title>\\PhpOffice\\PhpProject\\Shared\\XMLReader</title>
<polygon fill="none" stroke="black" points="146,-500 70,-500 70,-464 146,-464 146,-500"/>
<text text-anchor="middle" x="108" y="-479.1" font-family="Courier,monospace" font-size="11.00">XMLReader</text>
</g>
<!-- \\PhpOffice\\PhpProject\\Shared\\XMLWriter -->
<g id="node12" class="node"><title>\\PhpOffice\\PhpProject\\Shared\\XMLWriter</title>
<polygon fill="none" stroke="black" points="146,-446 70,-446 70,-410 146,-410 146,-446"/>
<text text-anchor="middle" x="108" y="-425.1" font-family="Courier,monospace" font-size="11.00">XMLWriter</text>
</g>
<!-- \\PhpOffice\\PhpProject\\Resource -->
<g id="node13" class="node"><title>\\PhpOffice\\PhpProject\\Resource</title>
<polygon fill="none" stroke="black" points="143,-392 73,-392 73,-356 143,-356 143,-392"/>
<text text-anchor="middle" x="108" y="-371.1" font-family="Courier,monospace" font-size="11.00">Resource</text>
</g>
<!-- \\PhpOffice\\PhpProject\\IOFactory -->
<g id="node14" class="node"><title>\\PhpOffice\\PhpProject\\IOFactory</title>
<polygon fill="none" stroke="black" points="146,-338 70,-338 70,-302 146,-302 146,-338"/>
<text text-anchor="middle" x="108" y="-317.1" font-family="Courier,monospace" font-size="11.00">IOFactory</text>
</g>
<!-- \\PhpOffice\\PhpProject\\Autoloader -->
<g id="node15" class="node"><title>\\PhpOffice\\PhpProject\\Autoloader</title>
<polygon fill="none" stroke="black" points="150,-284 66,-284 66,-248 150,-248 150,-284"/>
<text text-anchor="middle" x="108" y="-263.1" font-family="Courier,monospace" font-size="11.00">Autoloader</text>
</g>
<!-- \\PhpOffice\\PhpProject\\DocumentInformations -->
<g id="node16" class="node"><title>\\PhpOffice\\PhpProject\\DocumentInformations</title>
<polygon fill="none" stroke="black" points="184,-230 32,-230 32,-194 184,-194 184,-230"/>
<text text-anchor="middle" x="108" y="-209.1" font-family="Courier,monospace" font-size="11.00">DocumentInformations</text>
</g>
<!-- \\PhpOffice\\PhpProject\\PhpProject -->
<g id="node17" class="node"><title>\\PhpOffice\\PhpProject\\PhpProject</title>
<polygon fill="none" stroke="black" points="150,-176 66,-176 66,-140 150,-140 150,-176"/>
<text text-anchor="middle" x="108" y="-155.1" font-family="Courier,monospace" font-size="11.00">PhpProject</text>
</g>
<!-- \\PhpOffice\\PhpProject\\DocumentProperties -->
<g id="node18" class="node"><title>\\PhpOffice\\PhpProject\\DocumentProperties</title>
<polygon fill="none" stroke="black" points="177,-122 39,-122 39,-86 177,-86 177,-122"/>
<text text-anchor="middle" x="108" y="-101.1" font-family="Courier,monospace" font-size="11.00">DocumentProperties</text>
</g>
<!-- \\PhpOffice\\PhpProject\\Task -->
<g id="node19" class="node"><title>\\PhpOffice\\PhpProject\\Task</title>
<polygon fill="none" stroke="black" points="135,-68 81,-68 81,-32 135,-32 135,-68"/>
<text text-anchor="middle" x="108" y="-47.1" font-family="Courier,monospace" font-size="11.00">Task</text>
</g>
</g>
</svg>
