<?xml version="1.0" encoding="UTF-8" standalone="no"?>
<!DOCTYPE svg PUBLIC "-//W3C//DTD SVG 1.1//EN"
 "http://www.w3.org/Graphics/SVG/1.1/DTD/svg11.dtd">
<!-- Generated by graphviz version 2.26.3 (20100126.1600)
 -->
<!-- Title: G Pages: 1 -->
<svg width="214pt" height="746pt"
 viewBox="0.00 0.00 214.00 746.00" xmlns="http://www.w3.org/2000/svg" xmlns:xlink="http://www.w3.org/1999/xlink">
<g id="graph1" class="graph" transform="scale(1 1) rotate(0) translate(4 742)">
<title>G</title>
<polygon fill="white" stroke="white" points="-4,5 -4,-742 211,-742 211,5 -4,5"/>
<g id="graph2" class="cluster"><title>cluster_Global</title>
<polyline fill="none" stroke="gray" points="20,-8 186,-8 "/>
<path fill="none" stroke="gray" d="M186,-8C192,-8 198,-14 198,-20"/>
<polyline fill="none" stroke="gray" points="198,-20 198,-718 "/>
<path fill="none" stroke="gray" d="M198,-718C198,-724 192,-730 186,-730"/>
<polyline fill="none" stroke="gray" points="186,-730 20,-730 "/>
<path fill="none" stroke="gray" d="M20,-730C14,-730 8,-724 8,-718"/>
<polyline fill="none" stroke="gray" points="8,-718 8,-20 "/>
<path fill="none" stroke="gray" d="M8,-20C8,-14 14,-8 20,-8"/>
<text text-anchor="middle" x="103" y="-716.1" font-family="Times Roman,serif" font-size="11.00" fill="gray">Global</text>
</g>
<g id="graph3" class="cluster"><title>cluster_\PhpOffice</title>
<polyline fill="none" stroke="gray" points="28,-16 178,-16 "/>
<path fill="none" stroke="gray" d="M178,-16C184,-16 190,-22 190,-28"/>
<polyline fill="none" stroke="gray" points="190,-28 190,-688 "/>
<path fill="none" stroke="gray" d="M190,-688C190,-694 184,-700 178,-700"/>
<polyline fill="none" stroke="gray" points="178,-700 28,-700 "/>
<path fill="none" stroke="gray" d="M28,-700C22,-700 16,-694 16,-688"/>
<polyline fill="none" stroke="gray" points="16,-688 16,-28 "/>
<path fill="none" stroke="gray" d="M16,-28C16,-22 22,-16 28,-16"/>
<text text-anchor="middle" x="103" y="-686.1" font-family="Times Roman,serif" font-size="11.00" fill="gray">PhpOffice</text>
</g>
<g id="graph4" class="cluster"><title>cluster_\PhpOffice\PhpProject</title>
<polyline fill="none" stroke="gray" points="36,-24 170,-24 "/>
<path fill="none" stroke="gray" d="M170,-24C176,-24 182,-30 182,-36"/>
<polyline fill="none" stroke="gray" points="182,-36 182,-658 "/>
<path fill="none" stroke="gray" d="M182,-658C182,-664 176,-670 170,-670"/>
<polyline fill="none" stroke="gray" points="170,-670 36,-670 "/>
<path fill="none" stroke="gray" d="M36,-670C30,-670 24,-664 24,-658"/>
<polyline fill="none" stroke="gray" points="24,-658 24,-36 "/>
<path fill="none" stroke="gray" d="M24,-36C24,-30 30,-24 36,-24"/>
<text text-anchor="middle" x="103" y="-656.1" font-family="Times Roman,serif" font-size="11.00" fill="gray">PhpProject</text>
</g>
<g id="graph5" class="cluster"><title>cluster_\PhpOffice\PhpProject\Reader</title>
<polyline fill="none" stroke="gray" points="64,-566 142,-566 "/>
<path fill="none" stroke="gray" d="M142,-566C148,-566 154,-572 154,-578"/>
<polyline fill="none" stroke="gray" points="154,-578 154,-628 "/>
<path fill="none" stroke="gray" d="M154,-628C154,-634 148,-640 142,-640"/>
<polyline fill="none" stroke="gray" points="142,-640 64,-640 "/>
<path fill="none" stroke="gray" d="M64,-640C58,-640 52,-634 52,-628"/>
<polyline fill="none" stroke="gray" points="52,-628 52,-578 "/>
<path fill="none" stroke="gray" d="M52,-578C52,-572 58,-566 64,-566"/>
<text text-anchor="middle" x="103" y="-626.1" font-family="Times Roman,serif" font-size="11.00" fill="gray">Reader</text>
</g>
<g id="graph6" class="cluster"><title>cluster_\PhpOffice\PhpProject\Writer</title>
<polyline fill="none" stroke="gray" points="64,-484 142,-484 "/>
<path fill="none" stroke="gray" d="M142,-484C148,-484 154,-490 154,-496"/>
<polyline fill="none" stroke="gray" points="154,-496 154,-546 "/>
<path fill="none" stroke="gray" d="M154,-546C154,-552 148,-558 142,-558"/>
<polyline fill="none" stroke="gray" points="142,-558 64,-558 "/>
<path fill="none" stroke="gray" d="M64,-558C58,-558 52,-552 52,-546"/>
<polyline fill="none" stroke="gray" points="52,-546 52,-496 "/>
<path fill="none" stroke="gray" d="M52,-496C52,-490 58,-484 64,-484"/>
<text text-anchor="middle" x="103" y="-544.1" font-family="Times Roman,serif" font-size="11.00" fill="gray">Writer</text>
</g>
<g id="graph7" class="cluster"><title>cluster_\PhpOffice\PhpProject\Shared</title>
<polyline fill="none" stroke="gray" points="71,-402 135,-402 "/>
<path fill="none" stroke="gray" d="M135,-402C141,-402 147,-408 147,-414"/>
<polyline fill="none" stroke="gray" points="147,-414 147,-464 "/>
<path fill="none" stroke="gray" d="M147,-464C147,-470 141,-476 135,-476"/>
<polyline fill="none" stroke="gray" points="135,-476 71,-476 "/>
<path fill="none" stroke="gray" d="M71,-476C65,-476 59,-470 59,-464"/>
<polyline fill="none" stroke="gray" points="59,-464 59,-414 "/>
<path fill="none" stroke="gray" d="M59,-414C59,-408 65,-402 71,-402"/>
<text text-anchor="middle" x="103" y="-462.1" font-family="Times Roman,serif" font-size="11.00" fill="gray">Shared</text>
</g>
<!-- \\PhpOffice\\PhpProject\\Reader\\GanttProject -->
<g id="node5" class="node"><title>\\PhpOffice\\PhpProject\\Reader\\GanttProject</title>
<polygon fill="none" stroke="black" points="146,-610 60,-610 60,-574 146,-574 146,-610"/>
<text text-anchor="middle" x="103" y="-589.1" font-family="Times Roman,serif" font-size="11.00">GanttProject</text>
</g>
<!-- \\PhpOffice\\PhpProject\\Writer\\GanttProject -->
<g id="node7" class="node"><title>\\PhpOffice\\PhpProject\\Writer\\GanttProject</title>
<polygon fill="none" stroke="black" points="146,-528 60,-528 60,-492 146,-492 146,-528"/>
<text text-anchor="middle" x="103" y="-507.1" font-family="Times Roman,serif" font-size="11.00">GanttProject</text>
</g>
<!-- \\PhpOffice\\PhpProject\\Shared\\XMLWriter -->
<g id="node9" class="node"><title>\\PhpOffice\\PhpProject\\Shared\\XMLWriter</title>
<polygon fill="none" stroke="black" points="138,-446 68,-446 68,-410 138,-410 138,-446"/>
<text text-anchor="middle" x="103" y="-425.1" font-family="Times Roman,serif" font-size="11.00">XMLWriter</text>
</g>
<!-- \\PhpOffice\\PhpProject\\Autoloader -->
<g id="node10" class="node"><title>\\PhpOffice\\PhpProject\\Autoloader</title>
<polygon fill="none" stroke="black" points="141,-392 65,-392 65,-356 141,-356 141,-392"/>
<text text-anchor="middle" x="103" y="-371.1" font-family="Times Roman,serif" font-size="11.00">Autoloader</text>
</g>
<!-- \\PhpOffice\\PhpProject\\IOFactory -->
<g id="node11" class="node"><title>\\PhpOffice\\PhpProject\\IOFactory</title>
<polygon fill="none" stroke="black" points="137,-338 69,-338 69,-302 137,-302 137,-338"/>
<text text-anchor="middle" x="103" y="-317.1" font-family="Times Roman,serif" font-size="11.00">IOFactory</text>
</g>
<!-- \\PhpOffice\\PhpProject\\Task -->
<g id="node12" class="node"><title>\\PhpOffice\\PhpProject\\Task</title>
<polygon fill="none" stroke="black" points="130,-284 76,-284 76,-248 130,-248 130,-284"/>
<text text-anchor="middle" x="103" y="-263.1" font-family="Times Roman,serif" font-size="11.00">Task</text>
</g>
<!-- \\PhpOffice\\PhpProject\\DocumentInformations -->
<g id="node13" class="node"><title>\\PhpOffice\\PhpProject\\DocumentInformations</title>
<polygon fill="none" stroke="black" points="174,-230 32,-230 32,-194 174,-194 174,-230"/>
<text text-anchor="middle" x="103" y="-209.1" font-family="Times Roman,serif" font-size="11.00">DocumentInformations</text>
</g>
<!-- \\PhpOffice\\PhpProject\\DocumentProperties -->
<g id="node14" class="node"><title>\\PhpOffice\\PhpProject\\DocumentProperties</title>
<polygon fill="none" stroke="black" points="167,-176 39,-176 39,-140 167,-140 167,-176"/>
<text text-anchor="middle" x="103" y="-155.1" font-family="Times Roman,serif" font-size="11.00">DocumentProperties</text>
</g>
<!-- \\PhpOffice\\PhpProject\\Resource -->
<g id="node15" class="node"><title>\\PhpOffice\\PhpProject\\Resource</title>
<polygon fill="none" stroke="black" points="136,-122 70,-122 70,-86 136,-86 136,-122"/>
<text text-anchor="middle" x="103" y="-101.1" font-family="Times Roman,serif" font-size="11.00">Resource</text>
</g>
<!-- \\PhpOffice\\PhpProject\\PhpProject -->
<g id="node16" class="node"><title>\\PhpOffice\\PhpProject\\PhpProject</title>
<polygon fill="none" stroke="black" points="140,-68 66,-68 66,-32 140,-32 140,-68"/>
<text text-anchor="middle" x="103" y="-47.1" font-family="Times Roman,serif" font-size="11.00">PhpProject</text>
</g>
</g>
</svg>
