<?xml version="1.0" encoding="UTF-8" standalone="no"?>
<!DOCTYPE svg PUBLIC "-//W3C//DTD SVG 1.1//EN"
 "http://www.w3.org/Graphics/SVG/1.1/DTD/svg11.dtd">
<!-- Generated by graphviz version 2.26.3 (20100126.1600)
 -->
<!-- Title: G Pages: 1 -->
<svg width="214pt" height="854pt"
 viewBox="0.00 0.00 214.00 854.00" xmlns="http://www.w3.org/2000/svg" xmlns:xlink="http://www.w3.org/1999/xlink">
<g id="graph1" class="graph" transform="scale(1 1) rotate(0) translate(4 850)">
<title>G</title>
<polygon fill="white" stroke="white" points="-4,5 -4,-850 211,-850 211,5 -4,5"/>
<g id="graph2" class="cluster"><title>cluster_Global</title>
<polyline fill="none" stroke="gray" points="20,-8 186,-8 "/>
<path fill="none" stroke="gray" d="M186,-8C192,-8 198,-14 198,-20"/>
<polyline fill="none" stroke="gray" points="198,-20 198,-826 "/>
<path fill="none" stroke="gray" d="M198,-826C198,-832 192,-838 186,-838"/>
<polyline fill="none" stroke="gray" points="186,-838 20,-838 "/>
<path fill="none" stroke="gray" d="M20,-838C14,-838 8,-832 8,-826"/>
<polyline fill="none" stroke="gray" points="8,-826 8,-20 "/>
<path fill="none" stroke="gray" d="M8,-20C8,-14 14,-8 20,-8"/>
<text text-anchor="middle" x="103" y="-824.1" font-family="Times Roman,serif" font-size="11.00" fill="gray">Global</text>
</g>
<g id="graph3" class="cluster"><title>cluster_\PhpOffice</title>
<polyline fill="none" stroke="gray" points="28,-16 178,-16 "/>
<path fill="none" stroke="gray" d="M178,-16C184,-16 190,-22 190,-28"/>
<polyline fill="none" stroke="gray" points="190,-28 190,-796 "/>
<path fill="none" stroke="gray" d="M190,-796C190,-802 184,-808 178,-808"/>
<polyline fill="none" stroke="gray" points="178,-808 28,-808 "/>
<path fill="none" stroke="gray" d="M28,-808C22,-808 16,-802 16,-796"/>
<polyline fill="none" stroke="gray" points="16,-796 16,-28 "/>
<path fill="none" stroke="gray" d="M16,-28C16,-22 22,-16 28,-16"/>
<text text-anchor="middle" x="103" y="-794.1" font-family="Times Roman,serif" font-size="11.00" fill="gray">PhpOffice</text>
</g>
<g id="graph4" class="cluster"><title>cluster_\PhpOffice\PhpProject</title>
<polyline fill="none" stroke="gray" points="36,-24 170,-24 "/>
<path fill="none" stroke="gray" d="M170,-24C176,-24 182,-30 182,-36"/>
<polyline fill="none" stroke="gray" points="182,-36 182,-766 "/>
<path fill="none" stroke="gray" d="M182,-766C182,-772 176,-778 170,-778"/>
<polyline fill="none" stroke="gray" points="170,-778 36,-778 "/>
<path fill="none" stroke="gray" d="M36,-778C30,-778 24,-772 24,-766"/>
<polyline fill="none" stroke="gray" points="24,-766 24,-36 "/>
<path fill="none" stroke="gray" d="M24,-36C24,-30 30,-24 36,-24"/>
<text text-anchor="middle" x="103" y="-764.1" font-family="Times Roman,serif" font-size="11.00" fill="gray">PhpProject</text>
</g>
<g id="graph5" class="cluster"><title>cluster_\PhpOffice\PhpProject\Writer</title>
<polyline fill="none" stroke="gray" points="64,-674 142,-674 "/>
<path fill="none" stroke="gray" d="M142,-674C148,-674 154,-680 154,-686"/>
<polyline fill="none" stroke="gray" points="154,-686 154,-736 "/>
<path fill="none" stroke="gray" d="M154,-736C154,-742 148,-748 142,-748"/>
<polyline fill="none" stroke="gray" points="142,-748 64,-748 "/>
<path fill="none" stroke="gray" d="M64,-748C58,-748 52,-742 52,-736"/>
<polyline fill="none" stroke="gray" points="52,-736 52,-686 "/>
<path fill="none" stroke="gray" d="M52,-686C52,-680 58,-674 64,-674"/>
<text text-anchor="middle" x="103" y="-734.1" font-family="Times Roman,serif" font-size="11.00" fill="gray">Writer</text>
</g>
<g id="graph6" class="cluster"><title>cluster_\PhpOffice\PhpProject\Shared</title>
<polyline fill="none" stroke="gray" points="68,-538 138,-538 "/>
<path fill="none" stroke="gray" d="M138,-538C144,-538 150,-544 150,-550"/>
<polyline fill="none" stroke="gray" points="150,-550 150,-654 "/>
<path fill="none" stroke="gray" d="M150,-654C150,-660 144,-666 138,-666"/>
<polyline fill="none" stroke="gray" points="138,-666 68,-666 "/>
<path fill="none" stroke="gray" d="M68,-666C62,-666 56,-660 56,-654"/>
<polyline fill="none" stroke="gray" points="56,-654 56,-550 "/>
<path fill="none" stroke="gray" d="M56,-550C56,-544 62,-538 68,-538"/>
<text text-anchor="middle" x="103" y="-652.1" font-family="Times Roman,serif" font-size="11.00" fill="gray">Shared</text>
</g>
<g id="graph7" class="cluster"><title>cluster_\PhpOffice\PhpProject\Reader</title>
<polyline fill="none" stroke="gray" points="60,-402 146,-402 "/>
<path fill="none" stroke="gray" d="M146,-402C152,-402 158,-408 158,-414"/>
<polyline fill="none" stroke="gray" points="158,-414 158,-518 "/>
<path fill="none" stroke="gray" d="M158,-518C158,-524 152,-530 146,-530"/>
<polyline fill="none" stroke="gray" points="146,-530 60,-530 "/>
<path fill="none" stroke="gray" d="M60,-530C54,-530 48,-524 48,-518"/>
<polyline fill="none" stroke="gray" points="48,-518 48,-414 "/>
<path fill="none" stroke="gray" d="M48,-414C48,-408 54,-402 60,-402"/>
<text text-anchor="middle" x="103" y="-516.1" font-family="Times Roman,serif" font-size="11.00" fill="gray">Reader</text>
</g>
<!-- \\PhpOffice\\PhpProject\\Writer\\GanttProject -->
<g id="node5" class="node"><title>\\PhpOffice\\PhpProject\\Writer\\GanttProject</title>
<polygon fill="none" stroke="black" points="146,-718 60,-718 60,-682 146,-682 146,-718"/>
<text text-anchor="middle" x="103" y="-697.1" font-family="Times Roman,serif" font-size="11.00">GanttProject</text>
</g>
<!-- \\PhpOffice\\PhpProject\\Shared\\XMLWriter -->
<g id="node7" class="node"><title>\\PhpOffice\\PhpProject\\Shared\\XMLWriter</title>
<polygon fill="none" stroke="black" points="138,-636 68,-636 68,-600 138,-600 138,-636"/>
<text text-anchor="middle" x="103" y="-615.1" font-family="Times Roman,serif" font-size="11.00">XMLWriter</text>
</g>
<!-- \\PhpOffice\\PhpProject\\Shared\\XMLReader -->
<g id="node8" class="node"><title>\\PhpOffice\\PhpProject\\Shared\\XMLReader</title>
<polygon fill="none" stroke="black" points="141,-582 65,-582 65,-546 141,-546 141,-582"/>
<text text-anchor="middle" x="103" y="-561.1" font-family="Times Roman,serif" font-size="11.00">XMLReader</text>
</g>
<!-- \\PhpOffice\\PhpProject\\Reader\\MsProjectMPX -->
<g id="node10" class="node"><title>\\PhpOffice\\PhpProject\\Reader\\MsProjectMPX</title>
<polygon fill="none" stroke="black" points="149,-500 57,-500 57,-464 149,-464 149,-500"/>
<text text-anchor="middle" x="103" y="-479.1" font-family="Times Roman,serif" font-size="11.00">MsProjectMPX</text>
</g>
<!-- \\PhpOffice\\PhpProject\\Reader\\GanttProject -->
<g id="node11" class="node"><title>\\PhpOffice\\PhpProject\\Reader\\GanttProject</title>
<polygon fill="none" stroke="black" points="146,-446 60,-446 60,-410 146,-410 146,-446"/>
<text text-anchor="middle" x="103" y="-425.1" font-family="Times Roman,serif" font-size="11.00">GanttProject</text>
</g>
<!-- \\PhpOffice\\PhpProject\\Task -->
<g id="node12" class="node"><title>\\PhpOffice\\PhpProject\\Task</title>
<polygon fill="none" stroke="black" points="130,-392 76,-392 76,-356 130,-356 130,-392"/>
<text text-anchor="middle" x="103" y="-371.1" font-family="Times Roman,serif" font-size="11.00">Task</text>
</g>
<!-- \\PhpOffice\\PhpProject\\Resource -->
<g id="node13" class="node"><title>\\PhpOffice\\PhpProject\\Resource</title>
<polygon fill="none" stroke="black" points="136,-338 70,-338 70,-302 136,-302 136,-338"/>
<text text-anchor="middle" x="103" y="-317.1" font-family="Times Roman,serif" font-size="11.00">Resource</text>
</g>
<!-- \\PhpOffice\\PhpProject\\PhpProject -->
<g id="node14" class="node"><title>\\PhpOffice\\PhpProject\\PhpProject</title>
<polygon fill="none" stroke="black" points="140,-284 66,-284 66,-248 140,-248 140,-284"/>
<text text-anchor="middle" x="103" y="-263.1" font-family="Times Roman,serif" font-size="11.00">PhpProject</text>
</g>
<!-- \\PhpOffice\\PhpProject\\IOFactory -->
<g id="node15" class="node"><title>\\PhpOffice\\PhpProject\\IOFactory</title>
<polygon fill="none" stroke="black" points="137,-230 69,-230 69,-194 137,-194 137,-230"/>
<text text-anchor="middle" x="103" y="-209.1" font-family="Times Roman,serif" font-size="11.00">IOFactory</text>
</g>
<!-- \\PhpOffice\\PhpProject\\DocumentProperties -->
<g id="node16" class="node"><title>\\PhpOffice\\PhpProject\\DocumentProperties</title>
<polygon fill="none" stroke="black" points="167,-176 39,-176 39,-140 167,-140 167,-176"/>
<text text-anchor="middle" x="103" y="-155.1" font-family="Times Roman,serif" font-size="11.00">DocumentProperties</text>
</g>
<!-- \\PhpOffice\\PhpProject\\DocumentInformations -->
<g id="node17" class="node"><title>\\PhpOffice\\PhpProject\\DocumentInformations</title>
<polygon fill="none" stroke="black" points="174,-122 32,-122 32,-86 174,-86 174,-122"/>
<text text-anchor="middle" x="103" y="-101.1" font-family="Times Roman,serif" font-size="11.00">DocumentInformations</text>
</g>
<!-- \\PhpOffice\\PhpProject\\Autoloader -->
<g id="node18" class="node"><title>\\PhpOffice\\PhpProject\\Autoloader</title>
<polygon fill="none" stroke="black" points="141,-68 65,-68 65,-32 141,-32 141,-68"/>
<text text-anchor="middle" x="103" y="-47.1" font-family="Times Roman,serif" font-size="11.00">Autoloader</text>
</g>
</g>
</svg>
